<svg width="10" height="11" viewBox="0 0 10 11" fill="none" xmlns="http://www.w3.org/2000/svg">
<g clip-path="url(#clip0_0_155)">
<g clip-path="url(#clip1_0_155)">
<path d="M5.17801 8.66943C3.98152 8.66943 2.78534 8.66943 1.58885 8.66943C1.46788 8.66943 1.41196 8.7248 1.41196 8.84422C1.41196 8.87515 1.41353 8.90609 1.41164 8.93671C1.40913 8.97384 1.40536 9.01096 1.39844 9.04715C1.37268 9.17925 1.24606 9.28505 1.09461 9.2835C0.942534 9.28195 0.816538 9.16904 0.793601 9.02395C0.78826 8.98992 0.785432 8.95497 0.785432 8.92063C0.785118 8.21777 0.780405 7.51461 0.787003 6.81175C0.790773 6.40217 0.94222 6.04579 1.23254 5.74912C1.40881 5.56907 1.61839 5.441 1.85813 5.35933C2.04665 5.29529 2.24146 5.2758 2.44003 5.2758C4.28033 5.27642 6.12062 5.27487 7.96092 5.27704C8.50009 5.27766 8.93684 5.49173 9.26047 5.91741C9.41946 6.12684 9.51435 6.36473 9.54671 6.62459C9.55771 6.71214 9.56242 6.80123 9.56273 6.88971C9.56399 7.57215 9.56368 8.25458 9.56336 8.93702C9.56336 9.04375 9.53666 9.14089 9.44742 9.21142C9.35316 9.28598 9.2479 9.30547 9.13573 9.25999C9.02827 9.21606 8.9604 9.13532 8.94501 9.01993C8.93715 8.96177 8.9381 8.90207 8.93653 8.84329C8.93401 8.74832 8.89411 8.69109 8.8143 8.67345C8.7967 8.66943 8.77817 8.66974 8.75994 8.66974C7.56628 8.66974 6.37262 8.66974 5.17864 8.66974L5.17801 8.66943Z" fill="white"/>
<path d="M5.13478 2.50043C5.91087 2.50043 6.68664 2.50043 7.46241 2.50043C7.72226 2.50043 7.96514 2.55766 8.17471 2.71574C8.4443 2.91898 8.60172 3.18658 8.61491 3.52254C8.62622 3.80745 8.6212 4.09299 8.62245 4.37821C8.6234 4.56197 8.62245 4.74573 8.62245 4.92948C8.62245 4.94588 8.62151 4.9632 8.61711 4.97898C8.6036 5.02879 8.57627 5.04859 8.52474 5.039C8.46849 5.02848 8.41414 5.0059 8.35789 4.99971C8.22561 4.98548 8.09302 4.97558 7.96011 4.96877C7.87151 4.96413 7.84417 4.94836 7.8316 4.86266C7.79138 4.59105 7.53594 4.34666 7.20916 4.35037C6.84469 4.35439 6.48021 4.3513 6.11604 4.3513C5.84489 4.3513 5.61332 4.51031 5.52126 4.76089C5.50806 4.79677 5.50303 4.83575 5.49612 4.87349C5.48324 4.94124 5.45779 4.96661 5.38929 4.96754C5.2457 4.96908 5.10179 4.96908 4.9582 4.96754C4.89222 4.96692 4.86614 4.94124 4.8542 4.86607C4.83755 4.76058 4.79607 4.66653 4.7282 4.58394C4.60535 4.43421 4.44636 4.35285 4.2503 4.35192C3.8742 4.35006 3.49809 4.35099 3.12168 4.35161C2.80559 4.35192 2.55831 4.59507 2.51809 4.86205C2.50521 4.94836 2.47913 4.96351 2.39052 4.96908C2.24379 4.97867 2.09706 4.99228 1.95064 5.00775C1.9057 5.01239 1.86266 5.03157 1.81804 5.039C1.76997 5.04673 1.74766 5.03064 1.73415 4.98424C1.72881 4.96599 1.72629 4.9465 1.72629 4.92732C1.72598 4.48649 1.72001 4.04566 1.72755 3.60483C1.73541 3.14358 1.95189 2.80452 2.37544 2.59942C2.54323 2.51868 2.72515 2.50043 2.90927 2.50043C3.65111 2.50043 4.39295 2.50043 5.13478 2.50043Z" fill="white"/>
</g>
</g>
<defs>
<clipPath id="clip0_0_155">
<rect width="9.57764" height="9.57764" fill="white" transform="translate(0.385071 0.903732)"/>
</clipPath>
<clipPath id="clip1_0_155">
<rect width="8.7795" height="6.78416" fill="white" transform="translate(0.783508 2.50041)"/>
</clipPath>
</defs>
</svg>
