<svg width="11" height="11" viewBox="0 0 11 11" fill="none" xmlns="http://www.w3.org/2000/svg">
<path fill-rule="evenodd" clip-rule="evenodd" d="M2.36182 8.80632V2.58086H2.2421C2.04374 2.58086 1.88293 2.42005 1.88293 2.2217C1.88293 2.02334 2.04374 1.86253 2.2421 1.86253H8.22812C8.42648 1.86253 8.58728 2.02334 8.58728 2.2217C8.58728 2.42005 8.42648 2.58086 8.22812 2.58086H8.1084V8.80632H8.22812C8.42648 8.80632 8.58728 8.96713 8.58728 9.16548C8.58728 9.36384 8.42648 9.52465 8.22812 9.52465H6.55203C6.35367 9.52465 6.19287 9.36384 6.19287 9.16548V7.96828C6.19287 7.76992 6.03207 7.60912 5.83371 7.60912H4.63651C4.43815 7.60912 4.27734 7.76992 4.27734 7.96828V9.16548C4.27734 9.36384 4.11654 9.52465 3.91818 9.52465H2.2421C2.04374 9.52465 1.88293 9.36384 1.88293 9.16548C1.88293 8.96713 2.04374 8.80632 2.2421 8.80632H2.36182ZM3.79797 3.53947C3.79797 3.40724 3.90517 3.30003 4.03741 3.30003H4.5163C4.64854 3.30003 4.75574 3.40724 4.75574 3.53947V4.01836C4.75574 4.1506 4.64854 4.2578 4.5163 4.2578H4.03741C3.90517 4.2578 3.79797 4.1506 3.79797 4.01836V3.53947ZM4.03741 5.2141C3.90517 5.2141 3.79797 5.3213 3.79797 5.45354V5.93242C3.79797 6.06466 3.90517 6.17186 4.03741 6.17186H4.5163C4.64854 6.17186 4.75574 6.06466 4.75574 5.93242V5.45354C4.75574 5.3213 4.64854 5.2141 4.5163 5.2141H4.03741ZM5.71399 3.53947C5.71399 3.40724 5.82119 3.30003 5.95343 3.30003H6.43231C6.56455 3.30003 6.67175 3.40724 6.67175 3.53947V4.01836C6.67175 4.1506 6.56455 4.2578 6.43231 4.2578H5.95343C5.82119 4.2578 5.71399 4.1506 5.71399 4.01836V3.53947ZM5.95343 5.2141C5.82119 5.2141 5.71399 5.3213 5.71399 5.45354V5.93242C5.71399 6.06466 5.82119 6.17186 5.95343 6.17186H6.43231C6.56455 6.17186 6.67175 6.06466 6.67175 5.93242V5.45354C6.67175 5.3213 6.56455 5.2141 6.43231 5.2141H5.95343Z" fill="white"/>
</svg>
