<svg width="22" height="22" viewBox="0 0 22 22" fill="none" xmlns="http://www.w3.org/2000/svg">
<rect width="21.6731" height="21.6731" rx="4.81625" fill="white"/>
<path fill-rule="evenodd" clip-rule="evenodd" d="M17.8009 16.1304C17.3549 17.4857 15.6076 18.1616 14.3593 18.0489C12.6544 17.8948 10.7992 16.9905 9.39097 15.9945C7.321 14.5304 5.38203 12.2657 4.25217 9.86241C3.45366 8.16424 3.2745 6.07636 4.46216 4.52846C4.90139 3.95631 5.37625 3.65073 6.09 3.61509C7.0802 3.56693 7.2189 4.1334 7.55892 5.01572C7.81225 5.67553 8.15034 6.34858 8.33913 7.03247C8.69263 8.30874 7.45682 8.36208 7.30077 9.40525C7.20349 10.0631 8.00104 10.9454 8.36129 11.4145C9.06733 12.3334 9.91593 13.126 10.8734 13.7289C11.4214 14.0747 12.3066 14.6979 12.9347 14.354C13.9017 13.8242 13.8102 12.1936 15.1626 12.7455C15.8629 13.0306 16.541 13.4421 17.2095 13.8023C18.243 14.3581 18.1948 14.9341 17.8009 16.1304C18.0956 15.2365 17.5061 17.0243 17.8009 16.1304Z" fill="black"/>
</svg>
