<svg width="9" height="10" viewBox="0 0 9 10" fill="none" xmlns="http://www.w3.org/2000/svg">
<g clip-path="url(#clip0_0_162)">
<path d="M4.47833 7.09236C4.8077 6.47166 5.90556 6.47166 5.90556 6.47166C7.04956 6.45973 7.2041 5.76513 7.3074 5.41406C7.1225 6.90786 5.9493 8.0953 4.46233 8.30186C4.3548 8.07553 4.2274 7.56516 4.47833 7.09236Z" fill="white"/>
<path d="M1.66882 2.94489L1.5316 2.82754C1.52018 2.81777 1.50926 2.80753 1.49885 2.79688C0.980982 3.3843 0.666809 4.15559 0.666809 5.00026C0.666809 6.82053 2.12583 8.29999 3.93821 8.33303C3.82041 7.98143 3.74354 7.41159 4.03734 6.85799C4.30738 6.34909 4.85068 6.14879 5.19678 6.06369C5.38571 6.01726 5.55941 5.99463 5.68488 5.98336C5.74821 5.97769 5.80074 5.97476 5.83868 5.97326C5.85768 5.97253 5.87311 5.97213 5.88451 5.97189L5.89854 5.97169H5.90228C6.36254 5.96663 6.54118 5.83079 6.62361 5.73799C6.72558 5.62319 6.76554 5.48709 6.82121 5.29749L6.82844 5.27293C6.89447 5.04849 7.10534 4.90336 7.33241 4.91459C7.31148 4.08477 6.98724 3.33027 6.46644 2.75781C6.45591 2.81705 6.44338 2.87212 6.43084 2.92087C6.37431 3.14139 6.27941 3.37931 6.16294 3.55606C6.04898 3.72903 5.84654 3.88358 5.71198 3.98027C5.61041 4.05324 5.50661 4.11385 5.42108 4.16315L5.39038 4.18082C5.31314 4.22525 5.25174 4.26064 5.19328 4.29926C5.07461 4.37766 5.00344 4.44729 4.95521 4.54163C4.98454 4.64906 5.00538 4.77253 5.00571 4.90163C5.00651 5.20879 4.84928 5.45149 4.66134 5.60296C4.47644 5.75196 4.23721 5.83619 3.99481 5.83356C3.01153 5.82283 2.4348 5.02069 2.36054 4.19413C2.33894 3.95379 2.23083 3.69484 2.07974 3.45355C1.93281 3.2189 1.76673 3.03517 1.66882 2.94489Z" fill="white"/>
<path d="M2.8582 4.14945C2.79578 3.45471 2.26002 2.80734 1.99993 2.5705L1.85626 2.44762C2.43579 1.96045 3.18359 1.66699 3.99995 1.66699C4.73772 1.66699 5.41955 1.90669 5.97175 2.31247C6.04975 2.54931 5.90115 3.04419 5.74512 3.28103C5.68858 3.36682 5.56042 3.47332 5.41988 3.57428C5.10305 3.80192 4.70322 3.91451 4.49995 4.33366C4.44182 4.45349 4.44432 4.57059 4.47225 4.67243C4.49235 4.74559 4.50518 4.82516 4.50538 4.90299C4.50605 5.15463 4.25155 5.33639 3.99995 5.33366C3.34518 5.32653 2.91655 4.79883 2.8582 4.14945Z" fill="white"/>
</g>
<defs>
<clipPath id="clip0_0_162">
<rect width="8.38725" height="8.38043" fill="white" transform="translate(0.315247 0.702148)"/>
</clipPath>
</defs>
</svg>
