<svg width="22" height="22" viewBox="0 0 22 22" fill="none" xmlns="http://www.w3.org/2000/svg">
<path d="M0.230469 7.62477C0.230469 4.95582 0.230469 3.62137 0.749871 2.60198C1.20676 1.70531 1.93578 0.976287 2.83245 0.519403C3.85184 0 5.18629 0 7.85524 0H14.0503C16.7192 0 18.0537 0 19.073 0.519403C19.9697 0.976287 20.6988 1.70531 21.1556 2.60198C21.675 3.62137 21.675 4.95582 21.675 7.62477V13.8198C21.675 16.4887 21.675 17.8232 21.1556 18.8426C20.6988 19.7393 19.9697 20.4683 19.073 20.9251C18.0537 21.4446 16.7192 21.4446 14.0503 21.4446H7.85524C5.18629 21.4446 3.85184 21.4446 2.83245 20.9251C1.93578 20.4683 1.20676 19.7393 0.749871 18.8426C0.230469 17.8232 0.230469 16.4887 0.230469 13.8198V7.62477Z" fill="white"/>
<path d="M15.5891 4.99512L11.0037 8.57364L6.31348 4.99512V4.99608L6.31914 5.00092V10.0118L10.9508 13.6676L15.5891 10.153V4.99512Z" fill="#EA4335"/>
<path d="M16.7891 4.12503L15.585 4.99547V10.1533L19.3741 7.24415V5.49162C19.3741 5.49162 18.9142 2.98861 16.7891 4.12503Z" fill="#FBBC05"/>
<path d="M15.585 10.1543V16.8442H18.4892C18.4892 16.8442 19.3156 16.7591 19.3751 15.817V7.24512L15.585 10.1543Z" fill="#34A853"/>
<path d="M6.31936 16.8515V10.0146L6.31348 10.0098L6.31936 16.8515Z" fill="#C5221F"/>
<path d="M6.31089 4.99561L5.1133 4.13C2.98824 2.99358 2.52734 5.49563 2.52734 5.49563V7.2481L6.31089 10.0065V4.99561Z" fill="#C5221F"/>
<path d="M6.31348 4.99512V10.006L6.31936 10.0108V4.99996L6.31348 4.99512Z" fill="#C5221F"/>
<path d="M2.52734 7.25195V15.8239C2.5859 16.7669 3.41326 16.8511 3.41326 16.8511H6.31749L6.31088 10.0093L2.52734 7.25195Z" fill="#4285F4"/>
</svg>
