<svg width="21" height="21" viewBox="0 0 21 21" fill="none" xmlns="http://www.w3.org/2000/svg">
<path d="M2.71924 9.64583C2.71924 6.42457 2.71924 4.81394 3.71995 3.81322C4.72068 2.8125 6.3313 2.8125 9.55257 2.8125H11.2609C14.4821 2.8125 16.0928 2.8125 17.0935 3.81322C18.0942 4.81394 18.0942 6.42457 18.0942 9.64583V11.3542C18.0942 14.5754 18.0942 16.1861 17.0935 17.1868C16.0928 18.1875 14.4821 18.1875 11.2609 18.1875H9.55257C6.3313 18.1875 4.72068 18.1875 3.71995 17.1868C2.71924 16.1861 2.71924 14.5754 2.71924 11.3542V9.64583Z" stroke="black" stroke-width="2.27778"/>
<path d="M14.2505 7.9375C14.9581 7.9375 15.5317 7.36386 15.5317 6.65625C15.5317 5.94864 14.9581 5.375 14.2505 5.375C13.5429 5.375 12.9692 5.94864 12.9692 6.65625C12.9692 7.36386 13.5429 7.9375 14.2505 7.9375Z" fill="black"/>
<path d="M10.4067 13.0625C11.822 13.0625 12.9692 11.9152 12.9692 10.5C12.9692 9.08477 11.822 7.9375 10.4067 7.9375C8.99151 7.9375 7.84424 9.08477 7.84424 10.5C7.84424 11.9152 8.99151 13.0625 10.4067 13.0625Z" stroke="black" stroke-width="2.27778"/>
</svg>
