<svg width="20" height="19" viewBox="0 0 20 19" fill="none" xmlns="http://www.w3.org/2000/svg">
<path d="M16.2709 1.61376H2.91441C2.76427 1.61167 2.61519 1.63918 2.47568 1.69472C2.33618 1.75026 2.20898 1.83273 2.10135 1.93743C1.99372 2.04213 1.90777 2.16701 1.8484 2.30493C1.78904 2.44285 1.75743 2.59112 1.75537 2.74126V16.2555C1.75743 16.4056 1.78904 16.5539 1.8484 16.6918C1.90777 16.8297 1.99372 16.9546 2.10135 17.0593C2.20898 17.164 2.33618 17.2465 2.47568 17.302C2.61519 17.3576 2.76427 17.3851 2.91441 17.383H16.2709C16.4211 17.3851 16.5702 17.3576 16.7097 17.302C16.8492 17.2465 16.9764 17.164 17.084 17.0593C17.1916 16.9546 17.2776 16.8297 17.337 16.6918C17.3963 16.5539 17.4279 16.4056 17.43 16.2555V2.74126C17.4279 2.59112 17.3963 2.44285 17.337 2.30493C17.2776 2.16701 17.1916 2.04213 17.084 1.93743C16.9764 1.83273 16.8492 1.75026 16.7097 1.69472C16.5702 1.63918 16.4211 1.61167 16.2709 1.61376ZM6.50979 14.8126H4.14441V7.71645H6.50979V14.8126ZM5.3271 6.72299C5.00089 6.72299 4.68803 6.5934 4.45736 6.36273C4.22669 6.13206 4.0971 5.8192 4.0971 5.49299C4.0971 5.16677 4.22669 4.85392 4.45736 4.62325C4.68803 4.39258 5.00089 4.26299 5.3271 4.26299C5.50032 4.24334 5.67574 4.26051 5.84187 4.31336C6.008 4.36621 6.16109 4.45355 6.29112 4.56967C6.42115 4.68579 6.52519 4.82806 6.59642 4.98718C6.66766 5.14629 6.70448 5.31866 6.70448 5.49299C6.70448 5.66732 6.66766 5.83969 6.59642 5.9988C6.52519 6.15791 6.42115 6.30019 6.29112 6.41631C6.16109 6.53243 6.008 6.61977 5.84187 6.67262C5.67574 6.72547 5.50032 6.74263 5.3271 6.72299ZM15.0409 14.8126H12.6756V11.0043C12.6756 10.0503 12.3365 9.42741 11.4771 9.42741C11.2111 9.42936 10.9521 9.51279 10.735 9.66645C10.5179 9.82012 10.3531 10.0366 10.2629 10.2868C10.2012 10.4722 10.1744 10.6673 10.184 10.8624V14.8047H7.81864C7.81864 14.8047 7.81864 8.3551 7.81864 7.70857H10.184V8.70991C10.3989 8.33705 10.7114 8.02988 11.088 7.82148C11.4645 7.61307 11.8907 7.51133 12.3208 7.52722C13.8977 7.52722 15.0409 8.54434 15.0409 10.7284V14.8126Z" fill="black"/>
</svg>
