<svg width="9" height="7" viewBox="0 0 9 7" fill="none" xmlns="http://www.w3.org/2000/svg">
<path d="M0.990461 2.06215C1.12033 2.06215 1.24892 2.08699 1.36889 2.13525C1.48886 2.18351 1.59786 2.25425 1.68966 2.34341C1.78146 2.43258 1.85426 2.53843 1.9039 2.65492C1.95354 2.7714 1.97905 2.89625 1.97897 3.02231V4.48608H6.80299V3.02171C6.80311 2.84163 6.85542 2.66521 6.95396 2.51263C7.0525 2.36005 7.19328 2.23747 7.36021 2.1589C7.52714 2.08033 7.71348 2.04894 7.89791 2.06833C8.08235 2.08772 8.25745 2.15709 8.40318 2.26853C8.54891 2.37996 8.6594 2.52896 8.72201 2.69848C8.78462 2.868 8.79682 3.0512 8.75722 3.22713C8.71762 3.40306 8.62782 3.56463 8.49808 3.69335C8.36834 3.82208 8.20391 3.91276 8.02358 3.95504V6.7169C8.02342 6.79193 7.99264 6.86385 7.93798 6.91691C7.88332 6.96996 7.80924 6.99984 7.73194 7H1.05063C0.973333 6.99984 0.899248 6.96996 0.84459 6.91691C0.789932 6.86385 0.759154 6.79193 0.758991 6.7169V3.95504C0.523339 3.90044 0.31655 3.76373 0.177895 3.57087C0.0392394 3.37802 -0.0216257 3.14245 0.00685771 2.9089C0.0353411 2.67535 0.151189 2.46009 0.332402 2.30399C0.513616 2.1479 0.748187 2.06184 0.990461 2.06215ZM1.64066 1.52933C1.59501 1.51061 1.5485 1.49391 1.50129 1.47927V0.660962C1.50161 0.485967 1.57329 0.318211 1.70065 0.194359C1.828 0.0705067 2.00069 0.000629766 2.18096 0H6.60038C6.78076 0.000472531 6.9536 0.0702801 7.08109 0.194149C7.20858 0.318018 7.28034 0.485864 7.28067 0.660962V1.47927C7.23346 1.49391 7.18695 1.51061 7.14129 1.52933C6.83895 1.65327 6.58099 1.86102 6.3997 2.12659C6.21841 2.39215 6.12184 2.70373 6.12209 3.02231V3.82512H2.65987V3.02231C2.65987 2.70378 2.56321 2.39231 2.38195 2.12679C2.20069 1.86127 1.94286 1.65346 1.64066 1.52933Z" fill="white"/>
</svg>
