<svg width="16" height="17" viewBox="0 0 16 17" fill="none" xmlns="http://www.w3.org/2000/svg">
<path d="M8.31119 0.222444C9.21648 0.208618 10.1151 0.215807 11.0132 0.208618C11.0431 1.3318 11.4988 2.34272 12.2238 3.09151L12.2227 3.0904C13.003 3.79329 14.0183 4.24898 15.1377 4.3264L15.1531 4.32751V7.11251C14.0958 7.08597 13.1014 6.84209 12.205 6.4229L12.2503 6.4417C11.8168 6.23321 11.4501 6.0192 11.1017 5.78029L11.1305 5.79909C11.1238 7.81706 11.1371 9.83503 11.1167 11.8458C11.0597 12.8706 10.719 13.8052 10.1726 14.5855L10.1837 14.5683C9.27012 15.8768 7.79024 16.7356 6.1074 16.7865H6.09966C6.03164 16.7898 5.95145 16.7915 5.87071 16.7915C4.91399 16.7915 4.01975 16.5249 3.25769 16.062L3.27981 16.0747C1.89284 15.2402 0.936117 13.8123 0.759151 12.1516L0.756939 12.129C0.743114 11.7833 0.736477 11.4377 0.750303 11.0992C1.02128 8.45635 3.23557 6.41184 5.92712 6.41184C6.22962 6.41184 6.52604 6.43783 6.81416 6.48705L6.78319 6.48263C6.79702 7.50516 6.75554 8.52824 6.75554 9.55078C6.52161 9.46617 6.25174 9.41695 5.97025 9.41695C4.93721 9.41695 4.05847 10.0773 3.73329 10.9991L3.72831 11.0157C3.65476 11.2519 3.61218 11.5234 3.61218 11.8043C3.61218 11.9183 3.61937 12.0311 3.63264 12.1417L3.63153 12.1284C3.81514 13.2599 4.78513 14.1137 5.95477 14.1137C5.9885 14.1137 6.02169 14.1132 6.05487 14.1115H6.04989C6.85896 14.0872 7.56129 13.652 7.95836 13.0088L7.96389 12.9989C8.11155 12.7931 8.21275 12.5443 8.24648 12.2738L8.24704 12.2661C8.31616 11.029 8.28851 9.79908 8.29515 8.56198C8.30179 5.77697 8.28851 2.9986 8.30897 0.220785L8.31119 0.222444Z" fill="black"/>
</svg>
