<svg width="43" height="44" viewBox="0 0 43 44" fill="none" xmlns="http://www.w3.org/2000/svg">
<path fill-rule="evenodd" clip-rule="evenodd" d="M21.4901 0.558594C9.69879 0.558594 0.107422 10.1567 0.107422 21.9563C0.107422 26.6359 1.61591 30.9757 4.18023 34.4983L1.51516 42.4483L9.73638 39.8198C13.1177 42.0589 17.153 43.3544 21.5025 43.3544C33.2938 43.3544 42.8852 33.7559 42.8852 21.9567C42.8852 10.1571 33.2938 0.558947 21.5025 0.558947L21.4901 0.558594ZM15.5189 11.4277C15.1041 10.434 14.7898 10.3963 14.1615 10.3708C13.9476 10.3583 13.7092 10.3459 13.4449 10.3459C12.6274 10.3459 11.7728 10.5849 11.2573 11.1131C10.629 11.7547 9.0701 13.2514 9.0701 16.321C9.0701 19.3905 11.3077 22.3592 11.6092 22.7746C11.9236 23.1893 15.9715 29.5798 22.2568 32.1842C27.1718 34.2221 28.6303 34.0332 29.7489 33.7943C31.383 33.4421 33.4322 32.2339 33.9477 30.7751C34.4632 29.3156 34.4632 28.0702 34.312 27.8061C34.1613 27.5419 33.7462 27.3914 33.1179 27.0765C32.4896 26.7619 29.4346 25.2523 28.8563 25.051C28.2904 24.8373 27.7501 24.9129 27.323 25.5168C26.7195 26.3597 26.1288 27.2153 25.6509 27.7308C25.2738 28.1334 24.6575 28.1838 24.1424 27.9697C23.4509 27.6807 21.5153 27.0008 19.1266 24.875C17.2786 23.2273 16.0216 21.177 15.6573 20.5607C15.2925 19.9319 15.6196 19.5666 15.9084 19.2272C16.2227 18.837 16.5243 18.5605 16.8387 18.1955C17.153 17.8309 17.329 17.642 17.5301 17.2142C17.744 16.7992 17.5929 16.3714 17.4421 16.0568C17.2913 15.7423 16.0344 12.6727 15.5189 11.4277Z" fill="#67C15E"/>
</svg>
