<svg width="22" height="22" viewBox="0 0 22 22" fill="none" xmlns="http://www.w3.org/2000/svg">
<rect x="0.113281" width="21.6731" height="21.6731" rx="4.81625" fill="white"/>
<path fill-rule="evenodd" clip-rule="evenodd" d="M10.9465 2.40726C6.30005 2.40726 2.52051 6.18786 2.52051 10.8356C2.52051 12.6789 3.11494 14.3883 4.12543 15.7758L3.07524 18.9073L6.31486 17.8719C7.64731 18.7539 9.23742 19.2641 10.9514 19.2641C15.5978 19.2641 19.3774 15.4834 19.3774 10.8358C19.3774 6.18801 15.5978 2.4074 10.9514 2.4074L10.9465 2.40726ZM8.59349 6.68849C8.43007 6.29708 8.3062 6.28226 8.05861 6.27219C7.97431 6.26729 7.88036 6.2624 7.77621 6.2624C7.45411 6.2624 7.11733 6.35651 6.9142 6.5646C6.66661 6.81729 6.05231 7.40686 6.05231 8.61592C6.05231 9.82499 6.93405 10.9943 7.05288 11.158C7.17674 11.3213 8.77187 13.8384 11.2486 14.8643C13.1854 15.667 13.7601 15.5926 14.2009 15.4985C14.8449 15.3598 15.6524 14.8839 15.8555 14.3093C16.0586 13.7344 16.0586 13.2438 15.9991 13.1398C15.9397 13.0357 15.7761 12.9765 15.5285 12.8524C15.2809 12.7285 14.0771 12.1339 13.8492 12.0546C13.6262 11.9704 13.4133 12.0002 13.245 12.2381C13.0072 12.5701 12.7744 12.9071 12.5861 13.1101C12.4375 13.2687 12.1946 13.2886 11.9917 13.2043C11.7192 13.0904 10.9564 12.8226 10.0151 11.9853C9.28692 11.3363 8.7916 10.5287 8.64802 10.2859C8.50431 10.0382 8.63319 9.89435 8.74699 9.76066C8.87085 9.60698 8.9897 9.49804 9.11356 9.35428C9.23743 9.21067 9.30677 9.13627 9.38604 8.96776C9.47034 8.80429 9.41077 8.63578 9.35136 8.51188C9.29194 8.38798 8.79663 7.17891 8.59349 6.68849Z" fill="#67C15E"/>
</svg>
