<svg width="20" height="19" viewBox="0 0 20 19" fill="none" xmlns="http://www.w3.org/2000/svg">
<g clip-path="url(#clip0_82_918)">
<path d="M18.2847 7.69383C18.3237 6.56527 18.0769 5.44515 17.5672 4.43748C17.2214 4.02401 16.7415 3.74498 16.2111 3.64902C14.0172 3.44995 11.8143 3.36836 9.61167 3.4046C7.4171 3.36672 5.22207 3.44568 3.0359 3.64114C2.60368 3.71976 2.20369 3.92249 1.88475 4.2246C1.17513 4.87902 1.09628 5.99864 1.01744 6.94479C0.903042 8.64595 0.903042 10.3529 1.01744 12.054C1.04025 12.5866 1.11954 13.1152 1.25398 13.6309C1.34905 14.0292 1.54139 14.3976 1.81378 14.7033C2.1349 15.0214 2.5442 15.2356 2.98859 15.3183C4.68845 15.5281 6.40122 15.615 8.11359 15.5784C10.8732 15.6179 13.2938 15.5784 16.1559 15.3577C16.6112 15.2801 17.032 15.0656 17.3622 14.7427C17.583 14.5218 17.7479 14.2515 17.8432 13.9542C18.1252 13.089 18.2637 12.1834 18.2532 11.2734C18.2847 10.8319 18.2847 8.16691 18.2847 7.69383ZM7.82974 11.7465V6.86594L12.4974 9.31806C11.1886 10.0434 9.46186 10.8634 7.82974 11.7465Z" fill="black"/>
</g>
<defs>
<clipPath id="clip0_82_918">
<rect width="18.9231" height="18.9231" fill="white" transform="translate(0.148438 0.0384521)"/>
</clipPath>
</defs>
</svg>
